<?xml version="1.0" encoding="utf-8"?>
<!-- Generator: Adobe Illustrator 22.0.0, SVG Export Plug-In . SVG Version: 6.00 Build 0)  -->
<svg version="1.1" id="Слой_1" xmlns="http://www.w3.org/2000/svg" xmlns:xlink="http://www.w3.org/1999/xlink" x="0px" y="0px"
	 viewBox="0 0 159.5 40.7" style="enable-background:new 0 0 159.5 40.7;" xml:space="preserve">
<style type="text/css">
	.st0{fill:#000;}
</style>
<g>
	<path class="st0" d="M20.4,0H6.9C3.1,0,0,3.1,0,6.9v27c0,3.8,3.1,6.9,6.9,6.9h13.5c11.2,0,20.4-9.1,20.4-20.4v0
		C40.7,9.1,31.6,0,20.4,0z M18.5,33.6h-7.6c-1.7,0-3-1.3-3-3v-1.4V11.5v-1.4c0-1.7,1.3-3,3-3h7.6c7.9,0,14.3,5.9,14.3,13.2
		S26.4,33.6,18.5,33.6z"/>
	<circle class="st0" cx="26.7" cy="20.4" r="3.9"/>
</g>
<g>
	<path class="st0" d="M54.9,27.3c2.1,0,3.1-0.8,3.6-2.7h5.1c-0.8,4.3-3.4,6.1-8.8,6.1c-6.7,0-9.5-2.9-9.5-9.6s2.8-9.6,9.5-9.6
		c6.7,0,9.5,2.9,9.5,9.7v1.6H50.9C51.2,26,52.4,27.3,54.9,27.3z M50.8,19.8H59c0-3.4-1.2-4.9-4-4.9C52.3,15,51.1,16.5,50.8,19.8z"/>
	<path class="st0" d="M78.5,12h5.8l-5.6,18.4h-8.2L64.9,12h5.8l4,14.8L78.5,12z"/>
	<path class="st0" d="M92.1,21.1v9.2h-5.4V11.9H91l0.7,1.7c1.1-1.4,2.6-2.1,4.4-2.1h2.6v4.6h-2.6C93,16.2,92.1,17.3,92.1,21.1
		L92.1,21.1z"/>
	<path class="st0" d="M120.1,21.2c0,6.7-2.9,9.6-9.9,9.6c-6.9,0-9.9-2.9-9.9-9.6s2.9-9.6,9.9-9.6C117.2,11.6,120.1,14.5,120.1,21.2z
		 M110.3,26.8c3.1,0,4.4-1.7,4.4-5.6c0-3.9-1.3-5.6-4.4-5.6c-3.1,0-4.4,1.7-4.4,5.6C105.8,25.1,107.2,26.8,110.3,26.8z"/>
	<path class="st0" d="M128.7,19.1l6.4-7.1h6.4l-7.9,8.8l8.7,9.6h-6.4l-7.1-7.9v7.9h-5.4V4.6h5.4V19.1z"/>
	<path class="st0" d="M159.5,24.7c0,4.2-2.6,6-8.6,6c-5.5,0-7.9-1.8-7.9-5.9h5.1c0,1.9,0.9,2.8,2.9,2.8s2.9-0.7,2.9-2.4
		c0-4-11-0.7-11-8c0-4,2.4-5.7,8-5.7c5.4,0,7.7,1.7,7.7,5.5H154c0-1.7-0.8-2.4-2.9-2.4s-2.9,0.6-2.9,2
		C148.2,20.3,159.5,17.3,159.5,24.7z"/>
</g>
</svg>
